ffmpeg version N-82167-g5e96558 Copyright (c) 2000-2016 the FFmpeg developers
  built with gcc 5.4.0 (Ubuntu 5.4.0-6ubuntu1~16.04.2) 20160609
  configuration: --prefix=/root/ffmpeg_build --pkg-config-flags=--static --extra-cflags=-I/root/ffmpeg_build/include --extra-ldflags=-L/root/ffmpeg_build/lib --bindir=/root/bin --enable-gpl --enable-libass --enable-libfdk-aac --enable-libfreetype --enable-libmp3lame --enable-libopus --enable-libtheora --enable-libvorbis --enable-libx264 --enable-libx265 --enable-nonfree
  libavutil      55. 35.100 / 55. 35.100
  libavcodec     57. 65.100 / 57. 65.100
  libavformat    57. 57.100 / 57. 57.100
  libavdevice    57.  2.100 / 57.  2.100
  libavfilter     6. 66.100 /  6. 66.100
  libswscale      4.  3.100 /  4.  3.100
  libswresample   2.  4.100 /  2.  4.100
  libpostproc    54.  2.100 / 54.  2.100
Input #0, matroska,webm, from '/media/yubikiri/bot/queue/3AnimePahe_Detective_Conan_-_050_720p_Fansub.mkv':
  Metadata:
    title           : 3|Text||0|0
    ALBUM           : Anime
    LANGUAGE        : Undefined
    ENCODER         : Lavf57.57.100
  Duration: 00:24:28.01, start: 0.000000, bitrate: 954 kb/s
    Stream #0:0: Video: mpeg4 (Advanced Simple Profile), yuv420p, 640x480 [SAR 1:1 DAR 4:3], 23.98 fps, 23.98 tbr, 1k tbn, 23.98 tbc (default)
    Metadata:
      DURATION        : 00:24:28.009000000
    Stream #0:1: Audio: mp3, 48000 Hz, stereo, s16p, 128 kb/s (default)
    Metadata:
      DURATION        : 00:24:27.960000000
[libx264 @ 0x38642a0] using SAR=1/1
[libx264 @ 0x38642a0] using cpu capabilities: MMX2 SSE2Fast SSSE3 SSE4.2 AVX FMA3 AVX2 LZCNT BMI2
[libx264 @ 0x38642a0] profile High, level 3.1
[libx264 @ 0x38642a0] 264 - core 148 r2643 5c65704 - H.264/MPEG-4 AVC codec - Copyleft 2003-2015 - http://www.videolan.org/x264.html - options: cabac=1 ref=8 deblock=1:1:1 analyse=0x3:0x133 me=umh subme=7 psy=1 psy_rd=0.00:0.00 mixed_ref=1 me_range=8 chroma_me=1 trellis=0 8x8dct=1 cqm=0 deadzone=21,11 fast_pskip=1 chroma_qp_offset=0 threads=8 lookahead_threads=2 sliced_threads=0 nr=0 decimate=1 interlaced=0 bluray_compat=0 constrained_intra=0 bframes=3 b_pyramid=2 b_adapt=2 b_bias=0 direct=1 weightb=1 open_gop=0 weightp=2 keyint=240 keyint_min=24 scenecut=40 intra_refresh=0 rc_lookahead=60 rc=crf mbtree=1 crf=27.0 qcomp=0.60 qpmin=0 qpmax=69 qpstep=4 ip_ratio=1.40 aq=1:1.00
[libfdk_aac @ 0x37f7ac0] Note, the VBR setting is unsupported and only works with some parameter combinations
Output #0, mp4, to '/media/yubikiri/bot/queue/3AnimePahe_Detective_Conan_-_050_720p_Fansub.mkv_encoded.mp4':
  Metadata:
    encoder         : Lavf57.57.100
    Stream #0:0: Video: h264 (libx264) ([33][0][0][0] / 0x0021), yuv420p, 640x480 [SAR 1:1 DAR 4:3], q=-1--1, 23.98 fps, 24k tbn, 23.98 tbc (default)
    Metadata:
      encoder         : Lavc57.65.100 libx264
    Side data:
      cpb: bitrate max/min/avg: 0/0/0 buffer size: 0 vbv_delay: -1
    Stream #0:1: Audio: aac (libfdk_aac) (HE-AACv2) ([64][0][0][0] / 0x0040), 48000 Hz, stereo, s16, 48 kb/s (default)
    Metadata:
      encoder         : Lavc57.65.100 libfdk_aac
Stream mapping:
  Stream #0:0 -> #0:0 (mpeg4 (native) -> h264 (libx264))
  Stream #0:1 -> #0:1 (mp3 (native) -> aac (libfdk_aac))
Press [q] to stop, [?] for help
frame=  134 fps=0.0 q=32.0 size=     107kB time=00:00:05.73 bitrate= 152.2kbits/s dup=1 drop=0 speed=11.4x    frame=  200 fps=194 q=32.0 size=     298kB time=00:00:08.51 bitrate= 287.1kbits/s dup=1 drop=0 speed=8.25x    frame=  308 fps=199 q=32.0 size=     466kB time=00:00:12.99 bitrate= 293.9kbits/s dup=1 drop=0 speed=8.39x    frame=  411 fps=200 q=32.0 size=     670kB time=00:00:17.30 bitrate= 317.4kbits/s dup=1 drop=0 speed=8.42x    frame=  500 fps=196 q=32.0 size=     857kB time=00:00:21.01 bitrate= 334.2kbits/s dup=1 drop=0 speed=8.22x    frame=  557 fps=182 q=32.0 size=     978kB time=00:00:23.40 bitrate= 342.5kbits/s dup=1 drop=0 speed=7.65x    frame=  696 fps=195 q=32.0 size=    1151kB time=00:00:29.16 bitrate= 323.4kbits/s dup=1 drop=0 speed=8.19x    frame=  781 fps=191 q=32.0 size=    1352kB time=00:00:32.74 bitrate= 338.2kbits/s dup=1 drop=0 speed=8.02x    frame=  877 fps=191 q=32.0 size=    1544kB time=00:00:36.75 bitrate= 344.2kbits/s dup=1 drop=0 speed=8.01x    frame=  980 fps=193 q=32.0 size=    1709kB time=00:00:41.02 bitrate= 341.2kbits/s dup=1 drop=0 speed=8.06x    frame= 1047 fps=187 q=32.0 size=    1871kB time=00:00:43.79 bitrate= 350.0kbits/s dup=1 drop=0 speed=7.83x    frame= 1157 fps=190 q=32.0 size=    2040kB time=00:00:48.44 bitrate= 344.9kbits/s dup=1 drop=0 speed=7.95x    frame= 1259 fps=191 q=32.0 size=    2222kB time=00:00:52.67 bitrate= 345.6kbits/s dup=1 drop=0 speed=7.97x    frame= 1319 fps=186 q=32.0 size=    2424kB time=00:00:55.19 bitrate= 359.8kbits/s dup=1 drop=0 speed=7.77x    frame= 1376 fps=181 q=32.0 size=    2577kB time=00:00:57.53 bitrate= 366.8kbits/s dup=1 drop=0 speed=7.56x    frame= 1443 fps=178 q=32.0 size=    2728kB time=00:01:00.35 bitrate= 370.2kbits/s dup=1 drop=0 speed=7.44x    frame= 1515 fps=176 q=32.0 size=    2890kB time=00:01:03.33 bitrate= 373.8kbits/s dup=1 drop=0 speed=7.34x    frame= 1596 fps=175 q=32.0 size=    3053kB time=00:01:06.71 bitrate= 374.9kbits/s dup=1 drop=0 speed= 7.3x    frame= 1670 fps=173 q=32.0 size=    3260kB time=00:01:09.82 bitrate= 382.5kbits/s dup=1 drop=0 speed=7.24x    frame= 1749 fps=172 q=32.0 size=    3438kB time=00:01:13.11 bitrate= 385.3kbits/s dup=1 drop=0 speed= 7.2x    frame= 1804 fps=169 q=32.0 size=    3626kB time=00:01:15.41 bitrate= 393.9kbits/s dup=1 drop=0 speed=7.07x    frame= 1870 fps=167 q=32.0 size=    3813kB time=00:01:18.14 bitrate= 399.7kbits/s dup=1 drop=0 speed=6.98x    frame= 1929 fps=165 q=32.0 size=    3960kB time=00:01:20.61 bitrate= 402.4kbits/s dup=1 drop=0 speed=6.88x    frame= 1988 fps=163 q=32.0 size=    4097kB time=00:01:23.05 bitrate= 404.1kbits/s dup=1 drop=0 speed=6.79x    frame= 2048 fps=161 q=32.0 size=    4257kB time=00:01:25.56 bitrate= 407.5kbits/s dup=1 drop=0 speed=6.71x    frame= 2117 fps=160 q=32.0 size=    4380kB time=00:01:28.47 bitrate= 405.5kbits/s dup=1 drop=0 speed=6.67x    frame= 2189 fps=159 q=32.0 size=    4511kB time=00:01:31.45 bitrate= 404.1kbits/s dup=1 drop=0 speed=6.65x    frame= 2300 fps=161 q=32.0 size=    4642kB time=00:01:36.10 bitrate= 395.6kbits/s dup=1 drop=0 speed=6.74x    frame= 2366 fps=160 q=32.0 size=    4767kB time=00:01:38.83 bitrate= 395.1kbits/s dup=1 drop=0 speed= 6.7x    frame= 2438 fps=160 q=32.0 size=    4973kB time=00:01:41.86 bitrate= 399.9kbits/s dup=1 drop=0 speed=6.67x    frame= 2538 fps=161 q=32.0 size=    5142kB time=00:01:46.04 bitrate= 397.2kbits/s dup=1 drop=0 speed=6.73x    frame= 2628 fps=162 q=32.0 size=    5305kB time=00:01:49.76 bitrate= 396.0kbits/s dup=1 drop=0 speed=6.75x    frame= 2704 fps=161 q=32.0 size=    5481kB time=00:01:52.96 bitrate= 397.5kbits/s dup=1 drop=0 speed=6.74x    frame= 2797 fps=162 q=32.0 size=    5671kB time=00:01:56.80 bitrate= 397.7kbits/s dup=1 drop=0 speed=6.76x    frame= 2839 fps=160 q=32.0 size=    5764kB time=00:01:58.55 bitrate= 398.3kbits/s dup=1 drop=0 speed=6.66x    frame= 2880 fps=157 q=32.0 size=    5850kB time=00:02:00.25 bitrate= 398.5kbits/s dup=1 drop=0 speed=6.57x    frame= 2917 fps=155 q=32.0 size=    5930kB time=00:02:01.83 bitrate= 398.7kbits/s dup=1 drop=0 speed=6.48x    frame= 2950 fps=153 q=32.0 size=    5989kB time=00:02:03.15 bitrate= 398.4kbits/s dup=1 drop=0 speed=6.38x    frame= 2992 fps=151 q=32.0 size=    6060kB time=00:02:04.95 bitrate= 397.3kbits/s dup=1 drop=0 speed= 6.3x    frame= 3062 fps=151 q=32.0 size=    6169kB time=00:02:07.85 bitrate= 395.3kbits/s dup=1 drop=0 speed=6.29x    frame= 3167 fps=152 q=32.0 size=    6292kB time=00:02:12.24 bitrate= 389.7kbits/s dup=1 drop=0 speed=6.35x    frame= 3259 fps=153 q=32.0 size=    6395kB time=00:02:16.08 bitrate= 385.0kbits/s dup=1 drop=0 speed=6.38x    frame= 3319 fps=152 q=32.0 size=    6497kB time=00:02:18.60 bitrate= 384.0kbits/s dup=1 drop=0 speed=6.35x    frame= 3367 fps=151 q=32.0 size=    6597kB time=00:02:20.60 bitrate= 384.4kbits/s dup=1 drop=0 speed=6.29x    frame= 3405 fps=149 q=32.0 size=    6748kB time=00:02:22.18 bitrate= 388.8kbits/s dup=1 drop=0 speed=6.22x    frame= 3468 fps=148 q=32.0 size=    6837kB time=00:02:24.79 bitrate= 386.8kbits/s dup=1 drop=0 speed= 6.2x    frame= 3546 fps=149 q=32.0 size=    6952kB time=00:02:28.07 bitrate= 384.6kbits/s dup=1 drop=0 speed= 6.2x    frame= 3609 fps=148 q=32.0 size=    7093kB time=00:02:30.67 bitrate= 385.6kbits/s dup=1 drop=0 speed=6.18x    frame= 3677 fps=148 q=32.0 size=    7196kB time=00:02:33.53 bitrate= 383.9kbits/s dup=1 drop=0 speed=6.16x    frame= 3746 fps=147 q=32.0 size=    7327kB time=00:02:36.39 bitrate= 383.8kbits/s dup=1 drop=0 speed=6.15x    frame= 3824 fps=148 q=32.0 size=    7410kB time=00:02:39.63 bitrate= 380.3kbits/s dup=1 drop=0 speed=6.16x    frame= 3888 fps=147 q=32.0 size=    7513kB time=00:02:42.32 bitrate= 379.2kbits/s dup=1 drop=0 speed=6.14x    frame= 3942 fps=146 q=32.0 size=    7601kB time=00:02:44.54 bitrate= 378.4kbits/s dup=1 drop=0 speed=6.11x    frame= 4006 fps=146 q=32.0 size=    7697kB time=00:02:47.23 bitrate= 377.0kbits/s dup=1 drop=0 speed= 6.1x    frame= 4061 fps=145 q=32.0 size=    7777kB time=00:02:49.53 bitrate= 375.8kbits/s dup=1 drop=0 speed=6.07x    frame= 4131 fps=145 q=32.0 size=    7836kB time=00:02:52.48 bitrate= 372.2kbits/s dup=1 drop=0 speed=6.06x    frame= 4177 fps=144 q=32.0 size=    7939kB time=00:02:54.40 bitrate= 372.9kbits/s dup=1 drop=0 speed=6.01x    frame= 4222 fps=143 q=32.0 size=    8061kB time=00:02:56.23 bitrate= 374.7kbits/s dup=1 drop=0 speed=5.97x    frame= 4301 fps=143 q=32.0 size=    8152kB time=00:02:59.56 bitrate= 371.9kbits/s dup=1 drop=0 speed=5.99x    frame= 4365 fps=143 q=32.0 size=    8251kB time=00:03:02.20 bitrate= 370.9kbits/s dup=1 drop=0 speed=5.97x    frame= 4410 fps=142 q=32.0 size=    8357kB time=00:03:04.08 bitrate= 371.9kbits/s dup=1 drop=0 speed=5.93x    frame= 4470 fps=142 q=32.0 size=    8446kB time=00:03:06.60 bitrate= 370.8kbits/s dup=1 drop=0 speed=5.91x    frame= 4513 fps=141 q=32.0 size=    8534kB time=00:03:08.39 bitrate= 371.1kbits/s dup=1 drop=0 speed=5.87x    frame= 4590 fps=141 q=32.0 size=    8650kB time=00:03:11.59 bitrate= 369.9kbits/s dup=1 drop=0 speed=5.88x    frame= 4670 fps=141 q=32.0 size=    8757kB time=00:03:14.92 bitrate= 368.0kbits/s dup=1 drop=0 speed=5.89x    frame= 4743 fps=141 q=32.0 size=    8866kB time=00:03:17.99 bitrate= 366.8kbits/s dup=1 drop=0 speed=5.89x    frame= 4794 fps=140 q=32.0 size=    8947kB time=00:03:20.12 bitrate= 366.2kbits/s dup=1 drop=0 speed=5.86x    frame= 4872 fps=141 q=32.0 size=    9014kB time=00:03:23.37 bitrate= 363.1kbits/s dup=1 drop=0 speed=5.87x    frame= 4922 fps=140 q=32.0 size=    9094kB time=00:03:25.41 bitrate= 362.6kbits/s dup=1 drop=0 speed=5.85x    frame= 4993 fps=140 q=32.0 size=    9225kB time=00:03:28.40 bitrate= 362.6kbits/s dup=1 drop=0 speed=5.85x    frame= 5044 fps=140 q=32.0 size=    9355kB time=00:03:30.53 bitrate= 364.0kbits/s dup=1 drop=0 speed=5.82x    frame= 5095 fps=139 q=32.0 size=    9470kB time=00:03:32.67 bitrate= 364.8kbits/s dup=1 drop=0 speed= 5.8x    frame= 5146 fps=139 q=32.0 size=    9592kB time=00:03:34.80 bitrate= 365.8kbits/s dup=1 drop=0 speed=5.78x    frame= 5219 fps=139 q=32.0 size=    9734kB time=00:03:37.83 bitrate= 366.1kbits/s dup=1 drop=0 speed=5.78x    frame= 5292 fps=139 q=32.0 size=    9816kB time=00:03:40.86 bitrate= 364.1kbits/s dup=1 drop=0 speed=5.79x    frame= 5363 fps=139 q=32.0 size=    9945kB time=00:03:43.85 bitrate= 363.9kbits/s dup=1 drop=0 speed=5.78x    frame= 5440 fps=139 q=32.0 size=   10027kB time=00:03:47.05 bitrate= 361.8kbits/s dup=1 drop=0 speed=5.79x    frame= 5517 fps=139 q=32.0 size=   10134kB time=00:03:50.25 bitrate= 360.6kbits/s dup=1 drop=0 speed= 5.8x    frame= 5582 fps=139 q=32.0 size=   10210kB time=00:03:52.98 bitrate= 359.0kbits/s dup=1 drop=0 speed=5.79x    frame= 5660 fps=139 q=32.0 size=   10293kB time=00:03:56.22 bitrate= 357.0kbits/s dup=1 drop=0 speed= 5.8x    frame= 5722 fps=139 q=32.0 size=   10435kB time=00:03:58.82 bitrate= 357.9kbits/s dup=1 drop=0 speed=5.79x    frame= 5790 fps=139 q=32.0 size=   10537kB time=00:04:01.64 bitrate= 357.2kbits/s dup=1 drop=0 speed=5.79x    frame= 5849 fps=138 q=32.0 size=   10616kB time=00:04:04.11 bitrate= 356.2kbits/s dup=1 drop=0 speed=5.78x    frame= 5901 fps=138 q=32.0 size=   10687kB time=00:04:06.29 bitrate= 355.5kbits/s dup=1 drop=0 speed=5.76x    frame= 5993 fps=139 q=32.0 size=   10795kB time=00:04:10.13 bitrate= 353.6kbits/s dup=1 drop=0 speed=5.78x    frame= 6081 fps=139 q=32.0 size=   10878kB time=00:04:13.76 bitrate= 351.2kbits/s dup=1 drop=0 speed= 5.8x    frame= 6139 fps=139 q=32.0 size=   10985kB time=00:04:16.19 bitrate= 351.2kbits/s dup=1 drop=0 speed=5.79x    frame= 6196 fps=138 q=32.0 size=   11074kB time=00:04:18.58 bitrate= 350.8kbits/s dup=1 drop=0 speed=5.77x    frame= 6283 fps=139 q=32.0 size=   11171kB time=00:04:22.20 bitrate= 349.0kbits/s dup=1 drop=0 speed=5.79x    frame= 6367 fps=139 q=32.0 size=   11284kB time=00:04:25.70 bitrate= 347.9kbits/s dup=1 drop=0 speed= 5.8x    frame= 6460 fps=139 q=32.0 size=   11368kB time=00:04:29.59 bitrate= 345.4kbits/s dup=1 drop=0 speed=5.82x    frame= 6552 fps=140 q=32.0 size=   11474kB time=00:04:33.43 bitrate= 343.8kbits/s dup=1 drop=0 speed=5.84x    frame= 6648 fps=141 q=32.0 size=   11530kB time=00:04:37.44 bitrate= 340.4kbits/s dup=1 drop=0 speed=5.86x    frame= 6696 fps=140 q=32.0 size=   11646kB time=00:04:39.44 bitrate= 341.4kbits/s dup=1 drop=0 speed=5.84x    frame= 6745 fps=140 q=32.0 size=   11747kB time=00:04:41.45 bitrate= 341.9kbits/s dup=1 drop=0 speed=5.82x    frame= 6818 fps=140 q=32.0 size=   11848kB time=00:04:44.52 bitrate= 341.1kbits/s dup=1 drop=0 speed=5.83x    frame= 6916 fps=140 q=32.0 size=   11957kB time=00:04:48.61 bitrate= 339.4kbits/s dup=1 drop=0 speed=5.85x    frame= 7022 fps=141 q=32.0 size=   12043kB time=00:04:53.01 bitrate= 336.7kbits/s dup=1 drop=0 speed=5.88x    frame= 7097 fps=141 q=32.0 size=   12151kB time=00:04:56.17 bitrate= 336.1kbits/s dup=1 drop=0 speed=5.88x    frame= 7187 fps=141 q=32.0 size=   12264kB time=00:04:59.92 bitrate= 335.0kbits/s dup=1 drop=0 speed=5.89x    frame= 7254 fps=141 q=32.0 size=   12377kB time=00:05:02.69 bitrate= 335.0kbits/s dup=1 drop=0 speed=5.89x    frame= 7320 fps=141 q=32.0 size=   12455kB time=00:05:05.47 bitrate= 334.0kbits/s dup=1 drop=0 speed=5.89x    frame= 7405 fps=141 q=32.0 size=   12553kB time=00:05:09.01 bitrate= 332.8kbits/s dup=1 drop=0 speed= 5.9x    frame= 7486 fps=141 q=32.0 size=   12664kB time=00:05:12.38 bitrate= 332.1kbits/s dup=1 drop=0 speed= 5.9x    frame= 7582 fps=142 q=32.0 size=   12781kB time=00:05:16.39 bitrate= 330.9kbits/s dup=1 drop=0 speed=5.92x    frame= 7688 fps=143 q=32.0 size=   12915kB time=00:05:20.79 bitrate= 329.8kbits/s dup=1 drop=0 speed=5.95x    frame= 7803 fps=143 q=32.0 size=   13040kB time=00:05:25.61 bitrate= 328.1kbits/s dup=1 drop=0 speed=5.98x    frame= 7905 fps=144 q=32.0 size=   13160kB time=00:05:29.87 bitrate= 326.8kbits/s dup=1 drop=0 speed=6.01x    frame= 7971 fps=143 q=32.0 size=   13252kB time=00:05:32.60 bitrate= 326.4kbits/s dup=1 drop=0 speed=5.99x    frame= 8058 fps=144 q=32.0 size=   13394kB time=00:05:36.23 bitrate= 326.3kbits/s dup=1 drop=0 speed=   6x    frame= 8113 fps=143 q=32.0 size=   13485kB time=00:05:38.53 bitrate= 326.3kbits/s dup=1 drop=0 speed=5.99x    frame= 8171 fps=143 q=32.0 size=   13593kB time=00:05:40.97 bitrate= 326.6kbits/s dup=1 drop=0 speed=5.97x    frame= 8256 fps=143 q=32.0 size=   13676kB time=00:05:44.51 bitrate= 325.2kbits/s dup=1 drop=0 speed=5.98x    frame= 8400 fps=145 q=32.0 size=   13777kB time=00:05:50.52 bitrate= 322.0kbits/s dup=1 drop=0 speed=6.03x    frame= 8509 fps=145 q=32.0 size=   13907kB time=00:05:55.05 bitrate= 320.9kbits/s dup=1 drop=0 speed=6.06x    frame= 8603 fps=145 q=32.0 size=   14004kB time=00:05:58.97 bitrate= 319.6kbits/s dup=1 drop=0 speed=6.07x    frame= 8688 fps=146 q=32.0 size=   14112kB time=00:06:02.51 bitrate= 318.9kbits/s dup=1 drop=0 speed=6.07x    frame= 8798 fps=146 q=32.0 size=   14220kB time=00:06:07.08 bitrate= 317.3kbits/s dup=1 drop=0 speed= 6.1x    frame= 8914 fps=147 q=32.0 size=   14331kB time=00:06:11.94 bitrate= 315.6kbits/s dup=1 drop=0 speed=6.13x    frame= 8995 fps=147 q=32.0 size=   14449kB time=00:06:15.31 bitrate= 315.4kbits/s dup=1 drop=0 speed=6.13x    frame= 9103 fps=148 q=32.0 size=   14579kB time=00:06:19.84 bitrate= 314.4kbits/s dup=1 drop=0 speed=6.16x    frame= 9211 fps=148 q=32.0 size=   14689kB time=00:06:24.32 bitrate= 313.1kbits/s dup=1 drop=0 speed=6.18x    frame= 9297 fps=148 q=32.0 size=   14805kB time=00:06:27.90 bitrate= 312.7kbits/s dup=1 drop=0 speed=6.19x    frame= 9388 fps=149 q=32.0 size=   14931kB time=00:06:31.74 bitrate= 312.2kbits/s dup=1 drop=0 speed= 6.2x    frame= 9471 fps=149 q=32.0 size=   15038kB time=00:06:35.15 bitrate= 311.8kbits/s dup=1 drop=0 speed= 6.2x    frame= 9575 fps=149 q=32.0 size=   15176kB time=00:06:39.51 bitrate= 311.2kbits/s dup=1 drop=0 speed=6.22x    frame= 9708 fps=150 q=32.0 size=   15298kB time=00:06:45.05 bitrate= 309.4kbits/s dup=1 drop=0 speed=6.26x    frame= 9839 fps=151 q=32.0 size=   15413kB time=00:06:50.51 bitrate= 307.6kbits/s dup=1 drop=0 speed=6.29x    frame= 9960 fps=151 q=32.0 size=   15519kB time=00:06:55.59 bitrate= 305.9kbits/s dup=1 drop=0 speed=6.32x    frame=10032 fps=151 q=32.0 size=   15587kB time=00:06:58.58 bitrate= 305.0kbits/s dup=1 drop=0 speed=6.32x    frame=10080 fps=151 q=32.0 size=   15677kB time=00:07:00.58 bitrate= 305.3kbits/s dup=1 drop=0 speed= 6.3x    frame=10140 fps=151 q=32.0 size=   15809kB time=00:07:03.06 bitrate= 306.1kbits/s dup=1 drop=0 speed=6.29x    frame=10202 fps=151 q=32.0 size=   15886kB time=00:07:05.70 bitrate= 305.7kbits/s dup=1 drop=0 speed=6.28x    frame=10268 fps=150 q=32.0 size=   15990kB time=00:07:08.43 bitrate= 305.7kbits/s dup=1 drop=0 speed=6.28x    frame=10357 fps=151 q=32.0 size=   16104kB time=00:07:12.15 bitrate= 305.3kbits/s dup=1 drop=0 speed=6.28x    frame=10453 fps=151 q=32.0 size=   16239kB time=00:07:16.11 bitrate= 305.0kbits/s dup=1 drop=0 speed= 6.3x    frame=10519 fps=151 q=32.0 size=   16329kB time=00:07:18.89 bitrate= 304.8kbits/s dup=1 drop=0 speed=6.29x    frame=10590 fps=151 q=29.0 size=   16391kB time=00:07:21.87 bitrate= 303.9kbits/s dup=1 drop=0 speed=6.29x    frame=10655 fps=151 q=32.0 size=   16493kB time=00:07:24.56 bitrate= 303.9kbits/s dup=1 drop=0 speed=6.28x    frame=10715 fps=150 q=32.0 size=   16613kB time=00:07:27.08 bitrate= 304.4kbits/s dup=1 drop=0 speed=6.27x    frame=10807 fps=151 q=32.0 size=   16701kB time=00:07:30.92 bitrate= 303.4kbits/s dup=1 drop=0 speed=6.28x    frame=10893 fps=151 q=32.0 size=   16800kB time=00:07:34.50 bitrate= 302.8kbits/s dup=1 drop=0 speed=6.29x    frame=10981 fps=151 q=32.0 size=   16885kB time=00:07:38.17 bitrate= 301.9kbits/s dup=1 drop=0 speed=6.29x    frame=11051 fps=151 q=32.0 size=   16986kB time=00:07:41.07 bitrate= 301.8kbits/s dup=1 drop=0 speed=6.29x    frame=11161 fps=151 q=32.0 size=   17079kB time=00:07:45.68 bitrate= 300.4kbits/s dup=1 drop=0 speed=6.31x    frame=11286 fps=152 q=32.0 size=   17187kB time=00:07:50.89 bitrate= 299.0kbits/s dup=1 drop=0 speed=6.33x    frame=11380 fps=152 q=32.0 size=   17296kB time=00:07:54.77 bitrate= 298.4kbits/s dup=1 drop=0 speed=6.34x    frame=11498 fps=153 q=32.0 size=   17386kB time=00:07:59.72 bitrate= 296.9kbits/s dup=1 drop=0 speed=6.37x    frame=11576 fps=153 q=32.0 size=   17492kB time=00:08:02.96 bitrate= 296.7kbits/s dup=1 drop=0 speed=6.37x    frame=11637 fps=152 q=32.0 size=   17596kB time=00:08:05.52 bitrate= 296.9kbits/s dup=1 drop=0 speed=6.36x    frame=11765 fps=153 q=32.0 size=   17710kB time=00:08:10.85 bitrate= 295.6kbits/s dup=1 drop=0 speed=6.39x    frame=11883 fps=154 q=32.0 size=   17848kB time=00:08:15.76 bitrate= 294.9kbits/s dup=1 drop=0 speed=6.41x    frame=11994 fps=154 q=32.0 size=   17973kB time=00:08:20.41 bitrate= 294.2kbits/s dup=1 drop=0 speed=6.42x    frame=12078 fps=154 q=32.0 size=   18131kB time=00:08:23.91 bitrate= 294.7kbits/s dup=1 drop=0 speed=6.43x    frame=12177 fps=154 q=32.0 size=   18247kB time=00:08:28.01 bitrate= 294.3kbits/s dup=1 drop=0 speed=6.44x    frame=12283 fps=155 q=32.0 size=   18346kB time=00:08:32.49 bitrate= 293.3kbits/s dup=1 drop=0 speed=6.45x    frame=12404 fps=155 q=32.0 size=   18472kB time=00:08:37.52 bitrate= 292.4kbits/s dup=1 drop=0 speed=6.48x    frame=12527 fps=156 q=32.0 size=   18580kB time=00:08:42.64 bitrate= 291.2kbits/s dup=1 drop=0 speed= 6.5x    frame=12643 fps=156 q=32.0 size=   18667kB time=00:08:47.46 bitrate= 289.9kbits/s dup=1 drop=0 speed=6.52x    frame=12755 fps=157 q=32.0 size=   18799kB time=00:08:52.16 bitrate= 289.4kbits/s dup=1 drop=0 speed=6.54x    frame=12839 fps=157 q=32.0 size=   18886kB time=00:08:55.65 bitrate= 288.8kbits/s dup=1 drop=0 speed=6.54x    frame=12956 fps=157 q=32.0 size=   18999kB time=00:09:00.52 bitrate= 287.9kbits/s dup=1 drop=0 speed=6.56x    frame=13089 fps=158 q=32.0 size=   19096kB time=00:09:06.11 bitrate= 286.4kbits/s dup=1 drop=0 speed=6.59x    frame=13185 fps=158 q=32.0 size=   19219kB time=00:09:10.08 bitrate= 286.2kbits/s dup=1 drop=0 speed=6.59x    frame=13282 fps=158 q=32.0 size=   19311kB time=00:09:14.13 bitrate= 285.5kbits/s dup=1 drop=0 speed= 6.6x    frame=13346 fps=158 q=32.0 size=   19425kB time=00:09:16.77 bitrate= 285.8kbits/s dup=1 drop=0 speed=6.59x    frame=13456 fps=158 q=32.0 size=   19559kB time=00:09:21.38 bitrate= 285.4kbits/s dup=1 drop=0 speed= 6.6x    frame=13558 fps=159 q=32.0 size=   19700kB time=00:09:25.61 bitrate= 285.3kbits/s dup=1 drop=0 speed=6.61x    frame=13654 fps=159 q=32.0 size=   19816kB time=00:09:29.62 bitrate= 285.0kbits/s dup=1 drop=0 speed=6.62x    frame=13761 fps=159 q=32.0 size=   19928kB time=00:09:34.10 bitrate= 284.4kbits/s dup=1 drop=0 speed=6.64x    frame=13849 fps=159 q=32.0 size=   20062kB time=00:09:37.77 bitrate= 284.4kbits/s dup=1 drop=0 speed=6.64x    frame=13943 fps=159 q=32.0 size=   20212kB time=00:09:41.69 bitrate= 284.6kbits/s dup=1 drop=0 speed=6.65x    frame=14037 fps=159 q=32.0 size=   20348kB time=00:09:45.62 bitrate= 284.6kbits/s dup=1 drop=0 speed=6.65x    frame=14125 fps=160 q=32.0 size=   20471kB time=00:09:49.29 bitrate= 284.6kbits/s dup=1 drop=0 speed=6.66x    frame=14181 fps=159 q=32.0 size=   20597kB time=00:09:51.63 bitrate= 285.2kbits/s dup=1 drop=0 speed=6.64x    frame=14231 fps=159 q=32.0 size=   20696kB time=00:09:53.68 bitrate= 285.6kbits/s dup=1 drop=0 speed=6.63x    frame=14311 fps=159 q=32.0 size=   20830kB time=00:09:57.05 bitrate= 285.8kbits/s dup=1 drop=0 speed=6.63x    frame=14381 fps=159 q=32.0 size=   20949kB time=00:09:59.95 bitrate= 286.0kbits/s dup=1 drop=0 speed=6.62x    frame=14427 fps=158 q=32.0 size=   21053kB time=00:10:01.87 bitrate= 286.5kbits/s dup=1 drop=0 speed=6.61x    frame=14512 fps=158 q=32.0 size=   21144kB time=00:10:05.41 bitrate= 286.1kbits/s dup=1 drop=0 speed=6.61x    frame=14610 fps=159 q=32.0 size=   21277kB time=00:10:09.51 bitrate= 286.0kbits/s dup=1 drop=0 speed=6.62x    frame=14700 fps=159 q=32.0 size=   21416kB time=00:10:13.27 bitrate= 286.1kbits/s dup=1 drop=0 speed=6.62x    frame=14786 fps=159 q=32.0 size=   21515kB time=00:10:16.85 bitrate= 285.7kbits/s dup=1 drop=0 speed=6.63x    frame=14894 fps=159 q=32.0 size=   21642kB time=00:10:21.37 bitrate= 285.3kbits/s dup=1 drop=0 speed=6.64x    frame=15004 fps=159 q=32.0 size=   21745kB time=00:10:25.94 bitrate= 284.6kbits/s dup=1 drop=0 speed=6.65x    frame=15084 fps=159 q=32.0 size=   21880kB time=00:10:29.27 bitrate= 284.8kbits/s dup=1 drop=0 speed=6.65x    frame=15141 fps=159 q=32.0 size=   21963kB time=00:10:31.65 bitrate= 284.8kbits/s dup=1 drop=0 speed=6.64x    frame=15199 fps=159 q=32.0 size=   22045kB time=00:10:34.09 bitrate= 284.8kbits/s dup=1 drop=0 speed=6.63x    frame=15251 fps=159 q=32.0 size=   22154kB time=00:10:36.22 bitrate= 285.3kbits/s dup=1 drop=0 speed=6.62x    frame=15318 fps=159 q=32.0 size=   22265kB time=00:10:39.04 bitrate= 285.4kbits/s dup=1 drop=0 speed=6.61x    frame=15383 fps=158 q=32.0 size=   22347kB time=00:10:41.77 bitrate= 285.3kbits/s dup=1 drop=0 speed=6.61x    frame=15446 fps=158 q=32.0 size=   22436kB time=00:10:44.37 bitrate= 285.2kbits/s dup=1 drop=0 speed= 6.6x    frame=15492 fps=158 q=32.0 size=   22528kB time=00:10:46.29 bitrate= 285.5kbits/s dup=1 drop=0 speed=6.58x    frame=15544 fps=158 q=32.0 size=   22658kB time=00:10:48.47 bitrate= 286.2kbits/s dup=1 drop=0 speed=6.57x    frame=15596 fps=157 q=32.0 size=   22745kB time=00:10:50.64 bitrate= 286.4kbits/s dup=1 drop=0 speed=6.56x    frame=15655 fps=157 q=32.0 size=   22834kB time=00:10:53.12 bitrate= 286.4kbits/s dup=1 drop=0 speed=6.55x    frame=15705 fps=157 q=32.0 size=   22956kB time=00:10:55.21 bitrate= 287.0kbits/s dup=1 drop=0 speed=6.54x    frame=15803 fps=157 q=32.0 size=   23071kB time=00:10:59.26 bitrate= 286.7kbits/s dup=1 drop=0 speed=6.55x    frame=15879 fps=157 q=32.0 size=   23186kB time=00:11:02.46 bitrate= 286.7kbits/s dup=1 drop=0 speed=6.55x    frame=15966 fps=157 q=32.0 size=   23262kB time=00:11:06.09 bitrate= 286.1kbits/s dup=1 drop=0 speed=6.55x    frame=16047 fps=157 q=32.0 size=   23345kB time=00:11:09.46 bitrate= 285.7kbits/s dup=1 drop=0 speed=6.55x    frame=16116 fps=157 q=32.0 size=   23466kB time=00:11:12.32 bitrate= 285.9kbits/s dup=1 drop=0 speed=6.55x    frame=16191 fps=157 q=32.0 size=   23579kB time=00:11:15.43 bitrate= 286.0kbits/s dup=1 drop=0 speed=6.54x    frame=16278 fps=157 q=32.0 size=   23694kB time=00:11:19.06 bitrate= 285.8kbits/s dup=1 drop=0 speed=6.55x    frame=16385 fps=157 q=32.0 size=   23776kB time=00:11:23.54 bitrate= 284.9kbits/s dup=1 drop=0 speed=6.56x    frame=16501 fps=158 q=32.0 size=   23843kB time=00:11:28.40 bitrate= 283.7kbits/s dup=1 drop=0 speed=6.57x    frame=16583 fps=158 q=32.0 size=   23952kB time=00:11:31.81 bitrate= 283.6kbits/s dup=1 drop=0 speed=6.57x    frame=16661 fps=158 q=32.0 size=   24021kB time=00:11:35.06 bitrate= 283.1kbits/s dup=1 drop=0 speed=6.57x    frame=16734 fps=157 q=29.0 size=   24092kB time=00:11:38.09 bitrate= 282.7kbits/s dup=1 drop=0 speed=6.57x    frame=16787 fps=157 q=32.0 size=   24214kB time=00:11:40.31 bitrate= 283.2kbits/s dup=1 drop=0 speed=6.56x    frame=16867 fps=157 q=32.0 size=   24333kB time=00:11:43.63 bitrate= 283.3kbits/s dup=1 drop=0 speed=6.56x    frame=16962 fps=157 q=32.0 size=   24435kB time=00:11:47.60 bitrate= 282.9kbits/s dup=1 drop=0 speed=6.57x    frame=17078 fps=158 q=32.0 size=   24540kB time=00:11:52.47 bitrate= 282.2kbits/s dup=1 drop=0 speed=6.58x    frame=17199 fps=158 q=32.0 size=   24653kB time=00:11:57.54 bitrate= 281.5kbits/s dup=1 drop=0 speed= 6.6x    frame=17276 fps=158 q=32.0 size=   24732kB time=00:12:00.70 bitrate= 281.1kbits/s dup=1 drop=0 speed=6.59x    frame=17389 fps=158 q=32.0 size=   24860kB time=00:12:05.44 bitrate= 280.7kbits/s dup=1 drop=0 speed= 6.6x    frame=17545 fps=159 q=32.0 size=   24967kB time=00:12:11.92 bitrate= 279.4kbits/s dup=1 drop=0 speed=6.63x    frame=17668 fps=159 q=32.0 size=   25094kB time=00:12:17.04 bitrate= 278.9kbits/s dup=1 drop=0 speed=6.64x    frame=17811 fps=160 q=32.0 size=   25190kB time=00:12:23.01 bitrate= 277.7kbits/s dup=1 drop=0 speed=6.67x    frame=17910 fps=160 q=32.0 size=   25322kB time=00:12:27.15 bitrate= 277.6kbits/s dup=1 drop=0 speed=6.67x    frame=18030 fps=160 q=32.0 size=   25421kB time=00:12:32.15 bitrate= 276.9kbits/s dup=1 drop=0 speed=6.69x    frame=18139 fps=161 q=32.0 size=   25511kB time=00:12:36.71 bitrate= 276.2kbits/s dup=1 drop=0 speed= 6.7x    frame=18223 fps=161 q=32.0 size=   25605kB time=00:12:40.21 bitrate= 275.9kbits/s dup=1 drop=0 speed= 6.7x    frame=18360 fps=161 q=32.0 size=   25700kB time=00:12:45.93 bitrate= 274.9kbits/s dup=1 drop=0 speed=6.72x    frame=18454 fps=161 q=32.0 size=   25770kB time=00:12:49.85 bitrate= 274.2kbits/s dup=1 drop=0 speed=6.72x    frame=18545 fps=161 q=32.0 size=   25863kB time=00:12:53.65 bitrate= 273.9kbits/s dup=1 drop=0 speed=6.73x    frame=18616 fps=161 q=32.0 size=   26034kB time=00:12:56.59 bitrate= 274.6kbits/s dup=1 drop=0 speed=6.72x    frame=18723 fps=161 q=32.0 size=   26127kB time=00:13:01.03 bitrate= 274.0kbits/s dup=1 drop=0 speed=6.73x    frame=18793 fps=161 q=32.0 size=   26261kB time=00:13:03.97 bitrate= 274.4kbits/s dup=1 drop=0 speed=6.73x    frame=18859 fps=161 q=32.0 size=   26378kB time=00:13:06.75 bitrate= 274.7kbits/s dup=1 drop=0 speed=6.72x    frame=18943 fps=161 q=32.0 size=   26512kB time=00:13:10.25 bitrate= 274.8kbits/s dup=1 drop=0 speed=6.72x    frame=19033 fps=161 q=32.0 size=   26640kB time=00:13:14.00 bitrate= 274.9kbits/s dup=1 drop=0 speed=6.73x    frame=19124 fps=161 q=32.0 size=   26773kB time=00:13:17.80 bitrate= 274.9kbits/s dup=1 drop=0 speed=6.73x    frame=19197 fps=161 q=32.0 size=   26902kB time=00:13:20.83 bitrate= 275.2kbits/s dup=1 drop=0 speed=6.73x    frame=19296 fps=161 q=32.0 size=   27031kB time=00:13:24.97 bitrate= 275.1kbits/s dup=1 drop=0 speed=6.73x    frame=19386 fps=161 q=32.0 size=   27168kB time=00:13:28.72 bitrate= 275.2kbits/s dup=1 drop=0 speed=6.73x    frame=19480 fps=162 q=32.0 size=   27306kB time=00:13:32.65 bitrate= 275.3kbits/s dup=1 drop=0 speed=6.74x    frame=19540 fps=161 q=32.0 size=   27438kB time=00:13:35.12 bitrate= 275.8kbits/s dup=1 drop=0 speed=6.73x    frame=19596 fps=161 q=32.0 size=   27555kB time=00:13:37.47 bitrate= 276.1kbits/s dup=1 drop=0 speed=6.72x    frame=19674 fps=161 q=32.0 size=   27671kB time=00:13:40.71 bitrate= 276.2kbits/s dup=1 drop=0 speed=6.72x    frame=19742 fps=161 q=32.0 size=   27777kB time=00:13:43.57 bitrate= 276.3kbits/s dup=1 drop=0 speed=6.72x    frame=19826 fps=161 q=32.0 size=   27929kB time=00:13:47.07 bitrate= 276.6kbits/s dup=1 drop=0 speed=6.72x    frame=19908 fps=161 q=32.0 size=   28077kB time=00:13:50.48 bitrate= 277.0kbits/s dup=1 drop=0 speed=6.72x    frame=19973 fps=161 q=32.0 size=   28190kB time=00:13:53.21 bitrate= 277.2kbits/s dup=1 drop=0 speed=6.71x    frame=20050 fps=161 q=32.0 size=   28341kB time=00:13:56.37 bitrate= 277.6kbits/s dup=1 drop=0 speed=6.71x    frame=20162 fps=161 q=32.0 size=   28451kB time=00:14:01.06 bitrate= 277.1kbits/s dup=1 drop=0 speed=6.72x    frame=20265 fps=161 q=32.0 size=   28600kB time=00:14:05.41 bitrate= 277.1kbits/s dup=1 drop=0 speed=6.73x    frame=20391 fps=162 q=32.0 size=   28719kB time=00:14:10.62 bitrate= 276.6kbits/s dup=1 drop=0 speed=6.74x    frame=20530 fps=162 q=32.0 size=   28816kB time=00:14:16.42 bitrate= 275.6kbits/s dup=1 drop=0 speed=6.76x    frame=20623 fps=162 q=32.0 size=   28939kB time=00:14:20.31 bitrate= 275.6kbits/s dup=1 drop=0 speed=6.77x    frame=20706 fps=162 q=32.0 size=   29057kB time=00:14:23.76 bitrate= 275.6kbits/s dup=1 drop=0 speed=6.77x    frame=20778 fps=162 q=32.0 size=   29159kB time=00:14:26.79 bitrate= 275.6kbits/s dup=1 drop=0 speed=6.76x    frame=20869 fps=162 q=32.0 size=   29253kB time=00:14:30.59 bitrate= 275.3kbits/s dup=1 drop=0 speed=6.77x    frame=20943 fps=162 q=32.0 size=   29362kB time=00:14:33.62 bitrate= 275.3kbits/s dup=1 drop=0 speed=6.76x    frame=21006 fps=162 q=32.0 size=   29455kB time=00:14:36.26 bitrate= 275.4kbits/s dup=1 drop=0 speed=6.76x    frame=21069 fps=162 q=32.0 size=   29583kB time=00:14:38.91 bitrate= 275.7kbits/s dup=1 drop=0 speed=6.75x    frame=21129 fps=162 q=32.0 size=   29695kB time=00:14:41.43 bitrate= 276.0kbits/s dup=1 drop=0 speed=6.74x    frame=21206 fps=162 q=32.0 size=   29810kB time=00:14:44.63 bitrate= 276.0kbits/s dup=1 drop=0 speed=6.74x    frame=21289 fps=162 q=32.0 size=   29905kB time=00:14:48.08 bitrate= 275.9kbits/s dup=1 drop=0 speed=6.74x    frame=21365 fps=162 q=32.0 size=   30002kB time=00:14:51.24 bitrate= 275.8kbits/s dup=1 drop=0 speed=6.74x    frame=21450 fps=162 q=32.0 size=   30067kB time=00:14:54.78 bitrate= 275.3kbits/s dup=1 drop=0 speed=6.74x    frame=21496 fps=161 q=32.0 size=   30166kB time=00:14:56.70 bitrate= 275.6kbits/s dup=1 drop=0 speed=6.73x    frame=21588 fps=161 q=32.0 size=   30249kB time=00:15:00.54 bitrate= 275.2kbits/s dup=1 drop=0 speed=6.73x    frame=21635 fps=161 q=32.0 size=   30324kB time=00:15:02.50 bitrate= 275.2kbits/s dup=1 drop=0 speed=6.71x    frame=21708 fps=161 q=32.0 size=   30420kB time=00:15:05.57 bitrate= 275.2kbits/s dup=1 drop=0 speed=6.71x    frame=21782 fps=161 q=32.0 size=   30508kB time=00:15:08.65 bitrate= 275.0kbits/s dup=1 drop=0 speed=6.71x    frame=21870 fps=161 q=32.0 size=   30591kB time=00:15:12.32 bitrate= 274.7kbits/s dup=1 drop=0 speed=6.71x    frame=21954 fps=161 q=32.0 size=   30684kB time=00:15:15.81 bitrate= 274.5kbits/s dup=1 drop=0 speed=6.71x    frame=22069 fps=161 q=32.0 size=   30772kB time=00:15:20.59 bitrate= 273.8kbits/s dup=1 drop=0 speed=6.72x    frame=22180 fps=161 q=32.0 size=   30851kB time=00:15:25.24 bitrate= 273.1kbits/s dup=1 drop=0 speed=6.73x    frame=22250 fps=161 q=32.0 size=   30912kB time=00:15:28.19 bitrate= 272.8kbits/s dup=1 drop=0 speed=6.73x    frame=22318 fps=161 q=32.0 size=   30999kB time=00:15:31.00 bitrate= 272.8kbits/s dup=1 drop=0 speed=6.72x    frame=22409 fps=161 q=32.0 size=   31095kB time=00:15:34.80 bitrate= 272.5kbits/s dup=1 drop=0 speed=6.73x    frame=22542 fps=162 q=32.0 size=   31161kB time=00:15:40.35 bitrate= 271.5kbits/s dup=1 drop=0 speed=6.74x    frame=22646 fps=162 q=32.0 size=   31257kB time=00:15:44.70 bitrate= 271.0kbits/s dup=1 drop=0 speed=6.75x    frame=22760 fps=162 q=32.0 size=   31349kB time=00:15:49.44 bitrate= 270.5kbits/s dup=1 drop=0 speed=6.76x    frame=22839 fps=162 q=32.0 size=   31438kB time=00:15:52.72 bitrate= 270.3kbits/s dup=1 drop=0 speed=6.75x    frame=22914 fps=162 q=32.0 size=   31514kB time=00:15:55.88 bitrate= 270.1kbits/s dup=1 drop=0 speed=6.75x    frame=22993 fps=162 q=32.0 size=   31582kB time=00:15:59.16 bitrate= 269.7kbits/s dup=1 drop=0 speed=6.75x    frame=23141 fps=162 q=32.0 size=   31675kB time=00:16:05.31 bitrate= 268.8kbits/s dup=1 drop=0 speed=6.77x    frame=23226 fps=162 q=32.0 size=   31768kB time=00:16:08.89 bitrate= 268.6kbits/s dup=1 drop=0 speed=6.77x    frame=23301 fps=162 q=32.0 size=   31871kB time=00:16:11.96 bitrate= 268.6kbits/s dup=1 drop=0 speed=6.77x    frame=23377 fps=162 q=32.0 size=   31958kB time=00:16:15.16 bitrate= 268.5kbits/s dup=1 drop=0 speed=6.77x    frame=23465 fps=162 q=32.0 size=   32044kB time=00:16:18.83 bitrate= 268.2kbits/s dup=1 drop=0 speed=6.77x    frame=23556 fps=162 q=32.0 size=   32116kB time=00:16:22.63 bitrate= 267.7kbits/s dup=1 drop=0 speed=6.77x    frame=23646 fps=162 q=32.0 size=   32246kB time=00:16:26.39 bitrate= 267.8kbits/s dup=1 drop=0 speed=6.78x    frame=23747 fps=163 q=32.0 size=   32337kB time=00:16:30.61 bitrate= 267.4kbits/s dup=1 drop=0 speed=6.78x    frame=23829 fps=163 q=32.0 size=   32454kB time=00:16:34.02 bitrate= 267.5kbits/s dup=1 drop=0 speed=6.78x    frame=23918 fps=163 q=32.0 size=   32542kB time=00:16:37.73 bitrate= 267.2kbits/s dup=1 drop=0 speed=6.78x    frame=24027 fps=163 q=32.0 size=   32645kB time=00:16:42.30 bitrate= 266.8kbits/s dup=1 drop=0 speed=6.79x    frame=24161 fps=163 q=32.0 size=   32743kB time=00:16:47.89 bitrate= 266.1kbits/s dup=1 drop=0 speed= 6.8x    frame=24276 fps=163 q=32.0 size=   32875kB time=00:16:52.67 bitrate= 265.9kbits/s dup=1 drop=0 speed=6.81x    frame=24415 fps=164 q=32.0 size=   32987kB time=00:16:58.47 bitrate= 265.3kbits/s dup=1 drop=0 speed=6.83x    frame=24546 fps=164 q=32.0 size=   33112kB time=00:17:03.97 bitrate= 264.9kbits/s dup=1 drop=0 speed=6.84x    frame=24692 fps=164 q=32.0 size=   33243kB time=00:17:10.03 bitrate= 264.4kbits/s dup=1 drop=0 speed=6.86x    frame=24838 fps=165 q=32.0 size=   33366kB time=00:17:16.09 bitrate= 263.8kbits/s dup=1 drop=0 speed=6.88x    frame=24957 fps=165 q=32.0 size=   33492kB time=00:17:21.08 bitrate= 263.5kbits/s dup=1 drop=0 speed=6.89x    frame=25021 fps=165 q=32.0 size=   33602kB time=00:17:23.73 bitrate= 263.7kbits/s dup=1 drop=0 speed=6.88x    frame=25101 fps=165 q=32.0 size=   33725kB time=00:17:27.06 bitrate= 263.9kbits/s dup=1 drop=0 speed=6.88x    frame=25185 fps=165 q=32.0 size=   33844kB time=00:17:30.56 bitrate= 263.9kbits/s dup=1 drop=0 speed=6.88x    frame=25213 fps=165 q=32.0 size=   33945kB time=00:17:31.75 bitrate= 264.4kbits/s dup=1 drop=0 speed=6.87x    frame=25253 fps=164 q=32.0 size=   34107kB time=00:17:33.41 bitrate= 265.2kbits/s dup=1 drop=0 speed=6.85x    frame=25286 fps=164 q=32.0 size=   34244kB time=00:17:34.78 bitrate= 266.0kbits/s dup=1 drop=0 speed=6.84x    frame=25366 fps=164 q=32.0 size=   34407kB time=00:17:38.15 bitrate= 266.4kbits/s dup=1 drop=0 speed=6.84x    frame=25465 fps=164 q=32.0 size=   34504kB time=00:17:42.25 bitrate= 266.1kbits/s dup=1 drop=0 speed=6.84x    frame=25563 fps=164 q=32.0 size=   34573kB time=00:17:46.34 bitrate= 265.6kbits/s dup=1 drop=0 speed=6.85x    frame=25602 fps=164 q=32.0 size=   34707kB time=00:17:47.96 bitrate= 266.2kbits/s dup=1 drop=0 speed=6.83x    frame=25657 fps=164 q=32.0 size=   34818kB time=00:17:50.27 bitrate= 266.5kbits/s dup=1 drop=0 speed=6.83x    frame=25768 fps=164 q=32.0 size=   34924kB time=00:17:54.88 bitrate= 266.2kbits/s dup=1 drop=0 speed=6.83x    frame=25877 fps=164 q=32.0 size=   35034kB time=00:17:59.48 bitrate= 265.9kbits/s dup=1 drop=0 speed=6.84x    frame=25975 fps=164 q=32.0 size=   35149kB time=00:18:03.54 bitrate= 265.7kbits/s dup=1 drop=0 speed=6.85x    frame=26062 fps=164 q=32.0 size=   35261kB time=00:18:07.12 bitrate= 265.7kbits/s dup=1 drop=0 speed=6.85x    frame=26179 fps=164 q=32.0 size=   35404kB time=00:18:12.03 bitrate= 265.6kbits/s dup=1 drop=0 speed=6.86x    frame=26290 fps=165 q=32.0 size=   35501kB time=00:18:16.68 bitrate= 265.2kbits/s dup=1 drop=0 speed=6.86x    frame=26379 fps=165 q=32.0 size=   35599kB time=00:18:20.39 bitrate= 265.0kbits/s dup=1 drop=0 speed=6.86x    frame=26453 fps=164 q=32.0 size=   35677kB time=00:18:23.46 bitrate= 264.9kbits/s dup=1 drop=0 speed=6.86x    frame=26509 fps=164 q=32.0 size=   35742kB time=00:18:25.81 bitrate= 264.8kbits/s dup=1 drop=0 speed=6.85x    frame=26547 fps=164 q=32.0 size=   35805kB time=00:18:27.39 bitrate= 264.9kbits/s dup=1 drop=0 speed=6.84x    frame=26599 fps=164 q=32.0 size=   35887kB time=00:18:29.56 bitrate= 265.0kbits/s dup=1 drop=0 speed=6.83x    frame=26657 fps=164 q=32.0 size=   35947kB time=00:18:31.95 bitrate= 264.8kbits/s dup=1 drop=0 speed=6.83x    frame=26720 fps=164 q=32.0 size=   36054kB time=00:18:34.64 bitrate= 265.0kbits/s dup=1 drop=0 speed=6.82x    frame=26827 fps=164 q=32.0 size=   36143kB time=00:18:39.04 bitrate= 264.6kbits/s dup=1 drop=0 speed=6.83x    frame=26996 fps=164 q=32.0 size=   36247kB time=00:18:46.12 bitrate= 263.7kbits/s dup=1 drop=0 speed=6.85x    frame=27145 fps=165 q=32.0 size=   36346kB time=00:18:52.35 bitrate= 262.9kbits/s dup=1 drop=0 speed=6.87x    frame=27257 fps=165 q=32.0 size=   36451kB time=00:18:57.00 bitrate= 262.6kbits/s dup=1 drop=0 speed=6.87x    frame=27336 fps=165 q=32.0 size=   36569kB time=00:19:00.28 bitrate= 262.7kbits/s dup=1 drop=0 speed=6.87x    frame=27400 fps=165 q=32.0 size=   36724kB time=00:19:02.97 bitrate= 263.2kbits/s dup=1 drop=0 speed=6.87x    frame=27481 fps=165 q=32.0 size=   36947kB time=00:19:06.34 bitrate= 264.0kbits/s dup=1 drop=0 speed=6.87x    frame=27575 fps=165 q=32.0 size=   37069kB time=00:19:10.27 bitrate= 264.0kbits/s dup=1 drop=0 speed=6.87x    frame=27724 fps=165 q=32.0 size=   37227kB time=00:19:16.50 bitrate= 263.7kbits/s dup=1 drop=0 speed=6.88x    frame=27823 fps=165 q=32.0 size=   37349kB time=00:19:20.59 bitrate= 263.6kbits/s dup=1 drop=0 speed=6.89x    frame=27898 fps=165 q=32.0 size=   37476kB time=00:19:23.75 bitrate= 263.8kbits/s dup=1 drop=0 speed=6.89x    frame=27945 fps=165 q=32.0 size=   37577kB time=00:19:25.71 bitrate= 264.1kbits/s dup=1 drop=0 speed=6.88x    frame=27986 fps=165 q=32.0 size=   37744kB time=00:19:27.42 bitrate= 264.9kbits/s dup=1 drop=0 speed=6.87x    frame=28017 fps=164 q=32.0 size=   37875kB time=00:19:28.70 bitrate= 265.5kbits/s dup=1 drop=0 speed=6.85x    frame=28063 fps=164 q=32.0 size=   38013kB time=00:19:30.62 bitrate= 266.0kbits/s dup=1 drop=0 speed=6.84x    frame=28117 fps=164 q=32.0 size=   38088kB time=00:19:32.88 bitrate= 266.0kbits/s dup=1 drop=0 speed=6.83x    frame=28146 fps=164 q=32.0 size=   38288kB time=00:19:34.08 bitrate= 267.2kbits/s dup=1 drop=0 speed=6.82x    frame=28187 fps=163 q=32.0 size=   38464kB time=00:19:35.78 bitrate= 268.0kbits/s dup=1 drop=0 speed=6.81x    frame=28238 fps=163 q=32.0 size=   38569kB time=00:19:37.92 bitrate= 268.2kbits/s dup=1 drop=0 speed= 6.8x    frame=28316 fps=163 q=32.0 size=   38668kB time=00:19:41.16 bitrate= 268.2kbits/s dup=1 drop=0 speed= 6.8x    frame=28377 fps=163 q=32.0 size=   38749kB time=00:19:43.72 bitrate= 268.2kbits/s dup=1 drop=0 speed= 6.8x    frame=28443 fps=163 q=32.0 size=   38831kB time=00:19:46.45 bitrate= 268.1kbits/s dup=1 drop=0 speed=6.79x    frame=28486 fps=163 q=32.0 size=   38915kB time=00:19:48.24 bitrate= 268.3kbits/s dup=1 drop=0 speed=6.78x    frame=28525 fps=162 q=32.0 size=   38988kB time=00:19:49.91 bitrate= 268.4kbits/s dup=1 drop=0 speed=6.77x    frame=28567 fps=162 q=32.0 size=   39062kB time=00:19:51.65 bitrate= 268.5kbits/s dup=1 drop=0 speed=6.76x    frame=28608 fps=162 q=32.0 size=   39171kB time=00:19:53.36 bitrate= 268.9kbits/s dup=1 drop=0 speed=6.75x    frame=28646 fps=162 q=32.0 size=   39250kB time=00:19:54.94 bitrate= 269.1kbits/s dup=1 drop=0 speed=6.74x    frame=28699 fps=162 q=32.0 size=   39334kB time=00:19:57.16 bitrate= 269.2kbits/s dup=1 drop=0 speed=6.74x    frame=28746 fps=161 q=32.0 size=   39414kB time=00:19:59.12 bitrate= 269.3kbits/s dup=1 drop=0 speed=6.73x    frame=28797 fps=161 q=32.0 size=   39526kB time=00:20:01.21 bitrate= 269.6kbits/s dup=1 drop=0 speed=6.72x    frame=28856 fps=161 q=32.0 size=   39614kB time=00:20:03.69 bitrate= 269.6kbits/s dup=1 drop=0 speed=6.72x    frame=28919 fps=161 q=32.0 size=   39720kB time=00:20:06.29 bitrate= 269.7kbits/s dup=1 drop=0 speed=6.71x    frame=28993 fps=161 q=32.0 size=   39839kB time=00:20:09.40 bitrate= 269.9kbits/s dup=1 drop=0 speed=6.71x    frame=29092 fps=161 q=32.0 size=   39988kB time=00:20:13.54 bitrate= 269.9kbits/s dup=1 drop=0 speed=6.71x    frame=29209 fps=161 q=32.0 size=   40091kB time=00:20:18.41 bitrate= 269.6kbits/s dup=1 drop=0 speed=6.72x    frame=29331 fps=161 q=32.0 size=   40216kB time=00:20:23.48 bitrate= 269.3kbits/s dup=1 drop=0 speed=6.73x    frame=29399 fps=161 q=29.0 size=   40281kB time=00:20:26.34 bitrate= 269.1kbits/s dup=1 drop=0 speed=6.73x    frame=29458 fps=161 q=32.0 size=   40453kB time=00:20:28.77 bitrate= 269.7kbits/s dup=1 drop=0 speed=6.72x    frame=29520 fps=161 q=32.0 size=   40582kB time=00:20:31.38 bitrate= 270.0kbits/s dup=1 drop=0 speed=6.72x    frame=29604 fps=161 q=32.0 size=   40676kB time=00:20:34.88 bitrate= 269.8kbits/s dup=1 drop=0 speed=6.72x    frame=29675 fps=161 q=32.0 size=   40785kB time=00:20:37.86 bitrate= 269.9kbits/s dup=1 drop=0 speed=6.72x    frame=29741 fps=161 q=32.0 size=   40879kB time=00:20:40.59 bitrate= 269.9kbits/s dup=1 drop=0 speed=6.71x    frame=29834 fps=161 q=29.0 size=   41013kB time=00:20:44.48 bitrate= 270.0kbits/s dup=1 drop=0 speed=6.72x    frame=29911 fps=161 q=32.0 size=   41119kB time=00:20:47.68 bitrate= 270.0kbits/s dup=1 drop=0 speed=6.71x    frame=29974 fps=161 q=32.0 size=   41264kB time=00:20:50.32 bitrate= 270.4kbits/s dup=1 drop=0 speed=6.71x    frame=30069 fps=161 q=32.0 size=   41390kB time=00:20:54.29 bitrate= 270.3kbits/s dup=1 drop=0 speed=6.71x    frame=30141 fps=161 q=32.0 size=   41506kB time=00:20:57.28 bitrate= 270.4kbits/s dup=1 drop=0 speed=6.71x    frame=30223 fps=161 q=32.0 size=   41599kB time=00:21:00.73 bitrate= 270.3kbits/s dup=1 drop=0 speed=6.71x    frame=30279 fps=161 q=32.0 size=   41687kB time=00:21:03.08 bitrate= 270.4kbits/s dup=1 drop=0 speed= 6.7x    frame=30365 fps=161 q=32.0 size=   41812kB time=00:21:06.62 bitrate= 270.4kbits/s dup=1 drop=0 speed= 6.7x    frame=30447 fps=161 q=32.0 size=   41934kB time=00:21:10.03 bitrate= 270.5kbits/s dup=1 drop=0 speed=6.71x    frame=30559 fps=161 q=32.0 size=   42064kB time=00:21:14.73 bitrate= 270.3kbits/s dup=1 drop=0 speed=6.71x    frame=30642 fps=161 q=32.0 size=   42182kB time=00:21:18.18 bitrate= 270.3kbits/s dup=1 drop=0 speed=6.71x    frame=30706 fps=161 q=32.0 size=   42318kB time=00:21:20.87 bitrate= 270.6kbits/s dup=1 drop=0 speed=6.71x    frame=30763 fps=161 q=32.0 size=   42444kB time=00:21:23.22 bitrate= 271.0kbits/s dup=1 drop=0 speed= 6.7x    frame=30837 fps=161 q=32.0 size=   42536kB time=00:21:26.33 bitrate= 270.9kbits/s dup=1 drop=0 speed= 6.7x    frame=30911 fps=161 q=32.0 size=   42671kB time=00:21:29.40 bitrate= 271.1kbits/s dup=1 drop=0 speed= 6.7x    frame=30976 fps=160 q=32.0 size=   42814kB time=00:21:32.09 bitrate= 271.4kbits/s dup=1 drop=0 speed=6.69x    frame=31026 fps=160 q=32.0 size=   42941kB time=00:21:34.18 bitrate= 271.8kbits/s dup=1 drop=0 speed=6.69x    frame=31075 fps=160 q=32.0 size=   43053kB time=00:21:36.23 bitrate= 272.1kbits/s dup=1 drop=0 speed=6.68x    frame=31128 fps=160 q=32.0 size=   43163kB time=00:21:38.41 bitrate= 272.3kbits/s dup=1 drop=0 speed=6.67x    frame=31179 fps=160 q=32.0 size=   43272kB time=00:21:40.58 bitrate= 272.6kbits/s dup=1 drop=0 speed=6.67x    frame=31229 fps=160 q=32.0 size=   43398kB time=00:21:42.67 bitrate= 272.9kbits/s dup=1 drop=0 speed=6.66x    frame=31270 fps=159 q=32.0 size=   43515kB time=00:21:44.38 bitrate= 273.3kbits/s dup=1 drop=0 speed=6.65x    frame=31300 fps=159 q=32.0 size=   43627kB time=00:21:45.62 bitrate= 273.7kbits/s dup=1 drop=0 speed=6.64x    frame=31346 fps=159 q=32.0 size=   43771kB time=00:21:47.54 bitrate= 274.2kbits/s dup=1 drop=0 speed=6.63x    frame=31412 fps=159 q=32.0 size=   43885kB time=00:21:50.31 bitrate= 274.4kbits/s dup=1 drop=0 speed=6.63x    frame=31524 fps=159 q=32.0 size=   44032kB time=00:21:54.96 bitrate= 274.3kbits/s dup=1 drop=0 speed=6.64x    frame=31651 fps=159 q=32.0 size=   44200kB time=00:22:00.25 bitrate= 274.3kbits/s dup=1 drop=0 speed=6.65x    frame=31733 fps=159 q=32.0 size=   44306kB time=00:22:03.67 bitrate= 274.2kbits/s dup=1 drop=0 speed=6.65x    frame=31803 fps=159 q=32.0 size=   44442kB time=00:22:06.61 bitrate= 274.4kbits/s dup=1 drop=0 speed=6.64x    frame=31890 fps=159 q=32.0 size=   44579kB time=00:22:10.24 bitrate= 274.5kbits/s dup=1 drop=0 speed=6.65x    frame=31960 fps=159 q=29.0 size=   44656kB time=00:22:13.14 bitrate= 274.4kbits/s dup=1 drop=0 speed=6.64x    frame=31998 fps=159 q=32.0 size=   44806kB time=00:22:14.72 bitrate= 275.0kbits/s dup=1 drop=0 speed=6.63x    frame=32043 fps=159 q=32.0 size=   44906kB time=00:22:16.59 bitrate= 275.2kbits/s dup=1 drop=0 speed=6.63x    frame=32090 fps=159 q=32.0 size=   45021kB time=00:22:18.56 bitrate= 275.5kbits/s dup=1 drop=0 speed=6.62x    frame=32138 fps=159 q=32.0 size=   45149kB time=00:22:20.60 bitrate= 275.9kbits/s dup=1 drop=0 speed=6.61x    frame=32203 fps=158 q=32.0 size=   45284kB time=00:22:23.29 bitrate= 276.2kbits/s dup=1 drop=0 speed=6.61x    frame=32261 fps=158 q=32.0 size=   45427kB time=00:22:25.68 bitrate= 276.5kbits/s dup=1 drop=0 speed= 6.6x    frame=32305 fps=158 q=32.0 size=   45566kB time=00:22:27.56 bitrate= 277.0kbits/s dup=1 drop=0 speed= 6.6x    frame=32338 fps=158 q=32.0 size=   45657kB time=00:22:28.92 bitrate= 277.3kbits/s dup=1 drop=0 speed=6.59x    frame=32388 fps=158 q=32.0 size=   45751kB time=00:22:31.01 bitrate= 277.4kbits/s dup=1 drop=0 speed=6.58x    frame=32423 fps=158 q=32.0 size=   45837kB time=00:22:32.47 bitrate= 277.6kbits/s dup=1 drop=0 speed=6.57x    frame=32445 fps=157 q=32.0 size=   45913kB time=00:22:33.36 bitrate= 277.9kbits/s dup=1 drop=0 speed=6.56x    frame=32476 fps=157 q=32.0 size=   46029kB time=00:22:34.68 bitrate= 278.3kbits/s dup=1 drop=0 speed=6.55x    frame=32524 fps=157 q=32.0 size=   46117kB time=00:22:36.65 bitrate= 278.5kbits/s dup=1 drop=0 speed=6.54x    frame=32566 fps=157 q=32.0 size=   46212kB time=00:22:38.44 bitrate= 278.7kbits/s dup=1 drop=0 speed=6.53x    frame=32621 fps=157 q=32.0 size=   46310kB time=00:22:40.74 bitrate= 278.8kbits/s dup=1 drop=0 speed=6.53x    frame=32694 fps=157 q=32.0 size=   46388kB time=00:22:43.77 bitrate= 278.6kbits/s dup=1 drop=0 speed=6.53x    frame=32742 fps=156 q=32.0 size=   46466kB time=00:22:45.78 bitrate= 278.7kbits/s dup=1 drop=0 speed=6.52x    frame=32784 fps=156 q=32.0 size=   46532kB time=00:22:47.53 bitrate= 278.7kbits/s dup=1 drop=0 speed=6.51x    frame=32850 fps=156 q=32.0 size=   46612kB time=00:22:50.26 bitrate= 278.7kbits/s dup=1 drop=0 speed=6.51x    frame=32969 fps=156 q=32.0 size=   46714kB time=00:22:55.25 bitrate= 278.3kbits/s dup=1 drop=0 speed=6.52x    frame=33058 fps=156 q=32.0 size=   46830kB time=00:22:58.92 bitrate= 278.2kbits/s dup=1 drop=0 speed=6.52x    frame=33135 fps=156 q=32.0 size=   46941kB time=00:23:02.16 bitrate= 278.2kbits/s dup=1 drop=0 speed=6.52x    frame=33211 fps=156 q=32.0 size=   47006kB time=00:23:05.32 bitrate= 278.0kbits/s dup=1 drop=0 speed=6.52x    frame=33288 fps=156 q=32.0 size=   47062kB time=00:23:08.52 bitrate= 277.7kbits/s dup=1 drop=0 speed=6.52x    frame=33371 fps=156 q=32.0 size=   47171kB time=00:23:11.97 bitrate= 277.6kbits/s dup=1 drop=0 speed=6.52x    frame=33459 fps=156 q=32.0 size=   47256kB time=00:23:15.69 bitrate= 277.4kbits/s dup=1 drop=0 speed=6.52x    frame=33508 fps=156 q=32.0 size=   47345kB time=00:23:17.69 bitrate= 277.5kbits/s dup=1 drop=0 speed=6.52x    frame=33573 fps=156 q=32.0 size=   47438kB time=00:23:20.42 bitrate= 277.5kbits/s dup=1 drop=0 speed=6.51x    frame=33670 fps=156 q=32.0 size=   47536kB time=00:23:24.43 bitrate= 277.3kbits/s dup=1 drop=0 speed=6.52x    frame=33731 fps=156 q=32.0 size=   47617kB time=00:23:27.04 bitrate= 277.2kbits/s dup=1 drop=0 speed=6.51x    frame=33797 fps=156 q=32.0 size=   47713kB time=00:23:29.77 bitrate= 277.3kbits/s dup=1 drop=0 speed=6.51x    frame=33857 fps=156 q=32.0 size=   47772kB time=00:23:32.28 bitrate= 277.1kbits/s dup=1 drop=0 speed=6.51x    frame=33916 fps=156 q=32.0 size=   47831kB time=00:23:34.72 bitrate= 277.0kbits/s dup=1 drop=0 speed= 6.5x    frame=33949 fps=156 q=32.0 size=   47925kB time=00:23:36.12 bitrate= 277.2kbits/s dup=1 drop=0 speed= 6.5x    frame=34000 fps=156 q=32.0 size=   48078kB time=00:23:38.21 bitrate= 277.7kbits/s dup=1 drop=0 speed=6.49x    frame=34058 fps=155 q=32.0 size=   48172kB time=00:23:40.65 bitrate= 277.8kbits/s dup=1 drop=0 speed=6.49x    frame=34109 fps=155 q=32.0 size=   48245kB time=00:23:42.78 bitrate= 277.8kbits/s dup=1 drop=0 speed=6.48x    frame=34157 fps=155 q=32.0 size=   48328kB time=00:23:44.79 bitrate= 277.9kbits/s dup=1 drop=0 speed=6.48x    frame=34212 fps=155 q=32.0 size=   48439kB time=00:23:47.09 bitrate= 278.1kbits/s dup=1 drop=0 speed=6.47x    frame=34256 fps=155 q=32.0 size=   48546kB time=00:23:48.92 bitrate= 278.3kbits/s dup=1 drop=0 speed=6.46x    frame=34321 fps=155 q=32.0 size=   48663kB time=00:23:51.61 bitrate= 278.5kbits/s dup=1 drop=0 speed=6.46x    frame=34389 fps=155 q=32.0 size=   48764kB time=00:23:54.43 bitrate= 278.5kbits/s dup=1 drop=0 speed=6.46x    frame=34479 fps=155 q=32.0 size=   48880kB time=00:23:58.23 bitrate= 278.4kbits/s dup=1 drop=0 speed=6.46x    frame=34572 fps=155 q=32.0 size=   48962kB time=00:24:02.07 bitrate= 278.1kbits/s dup=1 drop=0 speed=6.46x    frame=34637 fps=155 q=32.0 size=   49148kB time=00:24:04.80 bitrate= 278.7kbits/s dup=1 drop=0 speed=6.46x    frame=34730 fps=155 q=32.0 size=   49258kB time=00:24:08.68 bitrate= 278.5kbits/s dup=1 drop=0 speed=6.46x    frame=34827 fps=155 q=32.0 size=   49364kB time=00:24:12.73 bitrate= 278.4kbits/s dup=1 drop=0 speed=6.47x    frame=34921 fps=155 q=32.0 size=   49519kB time=00:24:16.66 bitrate= 278.5kbits/s dup=1 drop=0 speed=6.47x    frame=35023 fps=155 q=32.0 size=   49645kB time=00:24:20.88 bitrate= 278.4kbits/s dup=1 drop=0 speed=6.47x    frame=35109 fps=155 q=32.0 size=   49723kB time=00:24:24.51 bitrate= 278.1kbits/s dup=1 drop=0 speed=6.47x    [mp4 @ 0x37f3600] Starting second pass: moving the moov atom to the beginning of the file
frame=35197 fps=155 q=-1.0 Lsize=   50713kB time=00:24:27.96 bitrate= 283.0kbits/s dup=1 drop=0 speed=6.47x    
video:40396kB audio:9483kB subtitle:0kB other streams:0kB global headers:0kB muxing overhead: 1.671201%
[libx264 @ 0x38642a0] frame I:333   Avg QP:20.90  size: 14823
[libx264 @ 0x38642a0] frame P:11331 Avg QP:24.14  size:  2503
[libx264 @ 0x38642a0] frame B:23533 Avg QP:26.87  size:   343
[libx264 @ 0x38642a0] consecutive B-frames:  4.3%  9.7% 29.9% 56.1%
[libx264 @ 0x38642a0] mb I  I16..4: 25.8% 50.4% 23.8%
[libx264 @ 0x38642a0] mb P  I16..4:  4.8%  5.6%  1.4%  P16..4: 25.9%  4.4%  3.8%  0.2%  0.0%    skip:53.8%
[libx264 @ 0x38642a0] mb B  I16..4:  0.2%  0.2%  0.1%  B16..8: 13.4%  1.0%  0.1%  direct: 0.5%  skip:84.5%  L0:41.2% L1:57.0% BI: 1.8%
[libx264 @ 0x38642a0] 8x8 transform intra:47.4% inter:54.0%
[libx264 @ 0x38642a0] coded y,uvDC,uvAC intra: 25.9% 47.8% 9.3% inter: 1.7% 3.4% 0.0%
[libx264 @ 0x38642a0] i16 v,h,dc,p: 46% 28% 18%  7%
[libx264 @ 0x38642a0] i8 v,h,dc,ddl,ddr,vr,hd,vl,hu: 25% 17% 47%  2%  2%  2%  2%  2%  2%
[libx264 @ 0x38642a0] i4 v,h,dc,ddl,ddr,vr,hd,vl,hu: 32% 19% 20%  5%  5%  5%  5%  5%  4%
[libx264 @ 0x38642a0] i8c dc,h,v,p: 48% 24% 24%  4%
[libx264 @ 0x38642a0] Weighted P-Frames: Y:1.3% UV:0.8%
[libx264 @ 0x38642a0] ref P L0: 64.0%  8.6% 12.4%  4.2%  3.1%  2.8%  2.5%  1.6%  0.8%  0.0%
[libx264 @ 0x38642a0] ref B L0: 78.4% 10.4%  5.2%  2.0%  1.7%  1.4%  1.0%
[libx264 @ 0x38642a0] ref B L1: 91.6%  8.4%
[libx264 @ 0x38642a0] kb/s:225.42
